<svg xmlns="http://www.w3.org/2000/svg" viewBox="0 0 100 100" width="100" height="100">
  <circle cx="50" cy="50" r="46" fill="#064e3b" stroke="#10b981" stroke-width="3"/>

  <path d="M 52 22 Q 48 15 54 12 T 62 14" fill="none" stroke="#a7f3d0" stroke-width="2.5" stroke-linecap="round" opacity="0.6" />
  <path d="M 67 25 Q 65 18 72 16 T 78 19" fill="none" stroke="#a7f3d0" stroke-width="2" stroke-linecap="round" opacity="0.4" />

  <rect x="48" y="26" width="7" height="24" fill="#047857" />
  <line x1="48" y1="29" x2="55" y2="29" stroke="#10b981" stroke-width="1.5" />
  
  <rect x="63" y="29" width="6" height="21" fill="#047857" />
  <line x1="63" y1="32" x2="69" y2="32" stroke="#10b981" stroke-width="1.5" />

  <path d="M 25 65 L 25 50 L 37 42 L 37 50 L 49 42 L 49 50 L 61 42 L 61 50 L 75 50 L 75 65 Z" fill="#10b981" />

  <rect x="30" y="55" width="5" height="5" fill="#064e3b" rx="1" />
  <rect x="42" y="55" width="5" height="5" fill="#064e3b" rx="1" />
  <rect x="54" y="55" width="5" height="5" fill="#064e3b" rx="1" />
  <rect x="66" y="55" width="5" height="5" fill="#064e3b" rx="1" />

  <rect x="20" y="65" width="60" height="4" fill="#34d399" rx="2" />
</svg>
